<?xml version="1.0" encoding="utf-8"?>
<!-- Generator: Adobe Illustrator 25.1.0, SVG Export Plug-In . SVG Version: 6.00 Build 0)  -->
<svg version="1.1" id="Layer_1" xmlns="http://www.w3.org/2000/svg" xmlns:xlink="http://www.w3.org/1999/xlink" x="0px" y="0px"
	 viewBox="0 0 500 300" style="enable-background:new 0 0 500 300;" xml:space="preserve">
<style type="text/css">
	.st0{fill-rule:evenodd;clip-rule:evenodd;}
	.st1{fill:#3D3D3D;}
	.st2{fill-rule:evenodd;clip-rule:evenodd;fill:#3D3D3D;}
	.st3{fill:#FFFFFF;}
	.st4{fill-rule:evenodd;clip-rule:evenodd;fill:#FFFFFF;}
</style>
<g>
	<path class="st3" d="M421.04,152.47V69.26h21.19v107.72L421.04,152.47z M339.99,119.93v82.6h-20V69.26l122.24,133.27h-27.8
		L339.99,119.93z"/>
	<polygon class="st3" points="315.7,202.53 292.57,202.53 281.39,182.25 244.57,115.47 196.58,202.53 173.45,202.53 244.57,71.76 	
		"/>
	<polyline class="st3" points="244.57,115.47 281.39,182.25 292.57,202.53 	"/>
	<path class="st3" d="M122.24,125.81c2.9,0,5.61-0.48,8.12-1.43c2.51-0.95,4.69-2.29,6.54-4.01c1.85-1.72,3.3-3.72,4.36-5.98
		c1.05-2.26,1.58-4.64,1.58-7.14c0-5.35-1.98-9.81-5.94-13.38c-3.96-3.57-8.84-5.35-14.65-5.35h-13.86H78.96H57.77V71.76h68.03
		c5.28,0,10.3,0.92,15.05,2.76c4.75,1.84,8.91,4.37,12.47,7.58c3.56,3.21,6.37,6.96,8.41,11.24c2.05,4.28,3.07,8.86,3.07,13.74
		c0,2.97-0.43,5.74-1.29,8.3c-0.86,2.56-1.98,4.91-3.37,7.05c-1.39,2.14-2.97,4.13-4.75,5.98c-1.78,1.84-3.6,3.48-5.44,4.9
		c5.81,2.86,10.46,6.99,13.96,12.4c3.5,5.41,5.25,11.57,5.25,18.47c0,5.23-1.12,10.17-3.37,14.81c-2.24,4.64-5.28,8.71-9.11,12.22
		c-3.83,3.51-8.31,6.27-13.46,8.3c-5.15,2.02-10.62,3.03-16.43,3.03h-1.46H81.55H72.5H57.77v-16.8v-59.92H72.5v58.34h59.58
		l0.45-0.18c2.9-1.19,5.44-2.77,7.62-4.73c2.18-1.96,3.89-4.25,5.15-6.87c1.25-2.62,1.88-5.35,1.88-8.21c0-2.97-0.63-5.77-1.88-8.39
		c-1.25-2.62-2.97-4.91-5.15-6.87c-2.18-1.96-4.72-3.51-7.62-4.64c-2.9-1.13-7-1.69-10.3-1.69V125.81z"/>
	<g>
		<path class="st4" d="M242.36,166.18c3.15-1.04,5.99,1.12,6.68,3.46c1,3.34-1.19,6.04-3.69,6.73
			C238.79,178.2,235.37,168.48,242.36,166.18z"/>
		<path class="st4" d="M261.63,159.42c-0.86-0.47-0.09-0.33-0.79-1.34c-1.28-0.15-1.49,0.5-1.98,1.3l-30.06,0
			c-0.48-0.85-0.57-1.45-1.99-1.31c-0.43,0.83-0.06,0.96-0.77,1.31l-10.15,0l-0.04,2.91l11.06,0.01c2.13,6.63,8.69,25.36,8.94,31.11
			c3.32,0.04,13.25,0.43,15.87-0.12c0.71-2.6,0.94-5.43,1.75-8.12l7.28-22.86l11.06-0.02l0.08-3.02L261.63,159.42z M243.95,179.41
			c-4.06,0.07-7.33-4.23-8.71-6.81c-0.86-1.6-4.72-8.96-4.97-10.29l27.21,0.07C254.5,168.09,250.83,179.29,243.95,179.41z"/>
		<path class="st4" d="M242.7,230.74c0.41-4.62,0.08-18.42,0.1-24.68c0-1.48-0.75-7.03,0.97-7.22c1.84-0.2,1.22,4.08,1.21,6.98
			c-0.01,6.15-0.37,20.5,0.02,24.89c4.58-0.65,4.73-11.04,5.12-15.7l1.47-19.42l-15.39-0.07c-0.24,1.47,0.49,7.71,0.67,9.6
			c0.55,5.95,0.72,13.39,1.77,19.18C239.18,227.39,239.79,230.2,242.7,230.74L242.7,230.74z"/>
	</g>
</g>
</svg>
